<svg id="Default" xmlns="http://www.w3.org/2000/svg" xmlns:xlink="http://www.w3.org/1999/xlink" viewBox="0 0 250 150"><defs><style>.cls-1{fill:none;}.cls-2{clip-path:url(#clip-path);}.cls-3{fill:blue;}</style><clipPath id="clip-path"><rect class="cls-1" width="250" height="150"/></clipPath></defs><g class="cls-2"><g class="cls-2"><path class="cls-3" d="M182.74,98.64l.26-.28a25,25,0,0,0,4.73-6.1,16,16,0,0,0,1.82-6.69,14.5,14.5,0,0,0-1.81-7.31,25.29,25.29,0,0,0-6.37-7.66A46.79,46.79,0,0,0,172.94,65a94.49,94.49,0,0,0-18.78-7.39A142.61,142.61,0,0,0,139,54.35q-4.25-.7-8.54-1.09c-2.25-.2-4.5-.47-6.75-.66-1.17-.1-2.35-.13-3.53-.15-3.05-.05-6.11-.08-9.17-.11-1.84,0-3.68-.07-5.52,0s-3.82.16-5.73.28c-1.63.11-3.26.23-4.88.41-1.94.2-3.87.45-5.8.72-2.37.34-4.74.71-7.1,1.08-2.63.41-5.22,1-7.8,1.59a136.68,136.68,0,0,0-16.42,5.2c-1.59.6-3.12,1.39-4.67,2.11-.84.39-1.66.81-2.52,1.23a1.55,1.55,0,0,1-.14-.19c.75-.59,1.48-1.16,2.2-1.76a51.38,51.38,0,0,1,11.14-6.84,90.35,90.35,0,0,1,16.87-5.93c3.27-.82,6.55-1.6,9.87-2.2s6.67-1.22,10-1.56c2.77-.27,5.53-.57,8.31-.79,1.83-.14,3.68-.17,5.51-.24,2.27-.1,4.53-.24,6.8-.26,2.44,0,4.89,0,7.34.09,1.79.05,3.59.16,5.38.29,2.18.16,4.37.36,6.55.58,1.8.18,3.59.38,5.38.65,2,.3,3.93.67,5.88,1q4.69.95,9.37,2A79.56,79.56,0,0,1,170,52.37a81.33,81.33,0,0,1,8.51,3.3,64.56,64.56,0,0,1,11.8,7,25.78,25.78,0,0,1,7,7.72,16.08,16.08,0,0,1,1.93,4.82,14.88,14.88,0,0,1-1.16,9.71,21.92,21.92,0,0,1-3.29,4.81,37.22,37.22,0,0,1-10.34,8.12l-1.67.89-.06-.07"/><path class="cls-3" d="M129.12,80a6.75,6.75,0,0,1-3.49,6.25,7.83,7.83,0,0,1-11.58-3.83,7,7,0,0,1,1.66-7.61,7.54,7.54,0,0,1,6.6-2.4,7.85,7.85,0,0,1,6.63,5.54,7.24,7.24,0,0,1,.17,1c0,.34,0,.69,0,1"/><path class="cls-3" d="M146,79.25a4.48,4.48,0,0,1-3.61,4.45,4.8,4.8,0,0,1-5.58-3,4.57,4.57,0,0,1,3.9-6,4.82,4.82,0,0,1,4.65,2.13,3.68,3.68,0,0,1,.64,2.44"/><path class="cls-3" d="M131.63,67.12a4.22,4.22,0,0,1,4.08-4.31,4.39,4.39,0,0,1,4.18,1.93,4.27,4.27,0,0,1,0,4.77,4,4,0,0,1-4.11,2,4.91,4.91,0,0,1-2.46-.79,4,4,0,0,1-1.73-3.42v-.17"/><path class="cls-3" d="M120.21,60.61a3.69,3.69,0,0,1,2.1-3.37,4.93,4.93,0,0,1,4.44,0,3.32,3.32,0,0,1,1.8,2.2,4.58,4.58,0,0,1-.14,3.12,3.81,3.81,0,0,1-3,2.29,4.41,4.41,0,0,1-4.29-1.36,4,4,0,0,1-.91-2.93"/><path class="cls-3" d="M111.36,66.85a3.87,3.87,0,0,1-4-3.94,4,4,0,1,1,8,.28,4,4,0,0,1-4,3.66"/><path class="cls-3" d="M102.31,69A3.68,3.68,0,0,1,106.07,72,3.62,3.62,0,0,1,103,76.21a4,4,0,0,1-3-.75,3.83,3.83,0,0,1-1.24-3.81A3.74,3.74,0,0,1,101.72,69a5.76,5.76,0,0,1,.59,0"/><path class="cls-3" d="M102.31,88.9a3.41,3.41,0,0,1-3.57-3.43,3.54,3.54,0,0,1,7.07.13,3.37,3.37,0,0,1-3.5,3.3"/><path class="cls-3" d="M110.06,92.82a3.16,3.16,0,0,1,2.77,1.29,3.22,3.22,0,0,1-2.13,5,3.38,3.38,0,0,1-3.83-2.27,3.21,3.21,0,0,1,3-4.06h.19"/><path class="cls-3" d="M125.73,101.09a2.9,2.9,0,0,1-2.82,3c-2,0-3.21-1-3.25-2.89a2.81,2.81,0,0,1,2.93-3.06,2.88,2.88,0,0,1,3.14,3"/><path class="cls-3" d="M133.39,103.37a2.74,2.74,0,0,1,2.34-2.81,2.91,2.91,0,0,1,3.35,2.68,2.6,2.6,0,0,1-1.1,2.17,2.87,2.87,0,0,1-4.46-1.11,2.52,2.52,0,0,1-.13-.49,3.17,3.17,0,0,1,0-.44"/><path class="cls-3" d="M147.27,103.6a2.31,2.31,0,0,1,2-2.36,2.49,2.49,0,1,1,1,4.85,4.59,4.59,0,0,1-1.51-.24,2.2,2.2,0,0,1-1.47-2.25"/><path class="cls-3" d="M165.88,102.38A2.37,2.37,0,1,1,163.5,100a2.3,2.3,0,0,1,2.38,2.36"/><path class="cls-3" d="M176.83,101.16a1.94,1.94,0,0,1-2.12-2,2,2,0,0,1,2.15-2.06,2,2,0,1,1,0,4.09"/></g></g></svg>